/* XPM */
static char *_8cc52f28e654c28f57d78c0237ee030hppg8nE6M5jeFj2Q[] = {
/* columns rows colors chars-per-pixel */
"64 64 82 1 ",
"  c #36302D",
". c #3B342F",
"X c #3E3531",
"o c #3F3830",
"O c #423732",
"+ c #443A33",
"@ c #4C3E36",
"# c #483E38",
"$ c #4D4237",
"% c #4C4138",
"& c #504734",
"* c #544E35",
"= c #584F37",
"- c #53453A",
"; c #59463C",
": c #554A3B",
"> c #59493C",
", c #565037",
"< c #5A5237",
"1 c #5B513A",
"2 c #624E3F",
"3 c #65543F",
"4 c #71653D",
"5 c #594D42",
"6 c #5D5040",
"7 c #634E40",
"8 c #655342",
"9 c #6B5343",
"0 c #645C44",
"q c #685B43",
"w c #645649",
"e c #715745",
"r c #745847",
"t c #7A5E47",
"y c #765948",
"u c #795A49",
"i c #686045",
"p c #776B42",
"a c #796E43",
"s c #70634F",
"d c #7E624B",
"f c #7C6E4F",
"g c #7D7244",
"h c #766555",
"j c #7A6555",
"k c #7C6956",
"l c #7F6D57",
"z c #796858",
"x c #7C6858",
"c c #7C6959",
"v c #7C6A5A",
"b c #7E6C59",
"n c #806547",
"m c #80644F",
"M c #837641",
"N c #8D7D42",
"B c #8A7D44",
"V c #87784E",
"C c #8A794D",
"Z c #89794F",
"A c #806550",
"S c #866D55",
"D c #876F56",
"F c #827154",
"G c #8E8041",
"H c #908242",
"J c #938443",
"K c #948443",
"L c #968743",
"P c #938244",
"I c #938446",
"U c #948544",
"Y c #958644",
"T c #908049",
"R c #998B52",
"E c #9B8E52",
"W c #9D9152",
"Q c #A89E74",
"! c #A9A074",
"~ c #ABA277",
"^ c #B0AA7A",
"/ c #B2AC7D",
/* pixels */
"y>$$$7yuuuyuuuuuuu9;:******3uuue;***********<9tuuuuutuuuuutuuuuu",
"y>$$$7yuuuuuuuuuuuy;1***,<<3uuue1******=**1*<rreyyyyrrruurrrtruu",
"r>$$$7ruuuuuuuuuuuye9eeeeeeeuuuyeeeer8eeeeeee3<2<22<<2<22<2<223n",
"y>$$$7yuuyuyuuuuuuuuuuuuyuuuuuuuyuyuuuuuuuyue1***************=2y",
"y>$$$7yuyyyyuuuuuuuuuuuuuuuuuuuuuuuuuuuuuuuuy=*=***********=**3t",
"r>$$$7yuynynuuuuuuuuuuuuuuyyuuuyuuuuuuuuuuuur,*:***********=**3u",
"h>%$$7yumruyuuuuuuuzuAzjjjujjjdjjdjuutuuuuuyy98833333333233333eu",
"j>%%$7yumyuuyyuuuuuxxxvvkkSxxxxxxxxknuuuyuuuuyyyrrutruyutrruuruu",
"z5@-#7yurnuuuyuuuuuxxxvvvvvvvvxxxvvxuuuuuuuuuuuuuuuuuuuuuuuuuuuu",
"z5-@@7yureuuuuuuuujxvxvvvvvvvxxAxxvvxuuuuuuuuuuuuuuuuuuuuuuuuuuu",
"j5#@@7yumyyuyyuuuuxxxvxvxxvvxxmjxxxxuuuuuuuuuuuuuuuuuuuuuuuuuuuu",
"y;;@@7yurryuymmmxjjuuuuuuuuuuuymuuudxvxzzxxxxvxxvvxxxvxzkkxxxxxx",
"y5##@7uuuuuuuumAvvxuuuuuuuuuyyyyuuuuxxvvxvvvvvvvvvvvvvvvvvvzxvvv",
"y;%@#7uuuuuuuuAAvxjuuuuuuuuumynruuuuxxvzvvvvvvvvvvvvvzvvvvvzvvvv",
"e5@@#7yuuuuuuuxxzxjuuuyyyyuynrrnyuyuhzzxzzzzhzzhzzzzzzhzzzzzzxxz",
"-+XO ;yuuuuuuujuujuuuuy5;;;>@2;25>5@@########################$-5",
"@X   -ryuuuuuuuuuuuuuur;@@@@@@@@@&&@.                         O$",
"@X   >yuuuuuuuuuuuuuuuu@;@@;;@@@&@@@.                         O$",
"%X   ;yyuuuuuuuuuuuuuur@@@@@@@@@@&@@.                         +$",
">@O++;7977997799799999r;;;;;;;;;2;&=+oooO+O@OoooOO+O++OX.Oooo.$&",
"rrrry2O         X O@@;;rrurrrurr49rr<=&&3erre=&**9rrr9****&*****",
"uuuuu@            O@@@@ruuuuuuuunnrm<&==3tttt==&,euuue**********",
"uuuuu2O           O@@@;ruuuuuuuurrn9====3rrtr;;;*euuu9,,********",
"uuuuu@OOOOOOOOOOXOO@;;;ruuuuuuuuymyr2==23ruur;;;1yuuur1,,,<<,,,,",
"uuuuur9r9r9r9r9r99rrrrrruuuuuuruuuuurrrrruuuurrrruuuuuu94errrrrr",
"uuuuuuuuuuuuuuuuuuuuuuruuuuuuuuuuuuuuuuuuuuuuuuuuuuuuuuuuuuyuyuu",
"uuuuuuruuuuuuuuuuuuuuuuuuuuuuuuuuuuuuuuuuuuuuuuuuuuuuuuuuuyuuuyn",
"uuuuuuuuuuuuruuuuuuuuuruuuuuruuuuuuuuuuuuuuuuuuuuuuuuuuuuuuuyuyy",
"uuyymruuuuuuuuuuuuuuuuuuuuuuuuuuuuuuuuuuuruuuuuruuuuuuuuyuuymynr",
"myy9uyuuuuuuuuuuuuuuuuuruuuuuuuuuuuuuuuuuuuuuuuuuuuuuuuuuuuuyymy",
"rrrnuuuuuuuuuuuruuuuuuuuuuuuuuuuuuuuuuuuuuuuruuuuuuuuuuuuuuurrrn",
"ymmruuuuuuuuuuuuuuuuuuuuuuuuuuuuuuuuuuruuuruuuuuuuuuuuuuuuyuymre",
"uuuuuujudjuuhuduuuzuyhuddudddddduuuuuuuuuuruuDDDSuuuuuyuuuuuuuuu",
"uuuuujxvjvvxzvvvSxxvzvvvvvxVYHYBuuuuuuuuuruuAQ^^~Suuuyuuuuuuuuuu",
"uuuuujvvxvvvvvvvvvvvvvvvvvvVLLYNuuuuuuuuuuuum~//^Duuuuuuuuuuyuuu",
"uuuuuuvvvvvvvvvvvvvvvvxzvvSCLLPIuuuuuuuuuuuumQ//^Duuuuuuyuuuuuuu",
"uyuuujkxxvvvxvzvzzzzvvzxzzzVLLLBuuuuuruudyuum!^^~Duuuuuuuuuuuyuu",
"Axxxkuuuuu55>>>55555:555551pLLLIxxvvmmmmjjzzSEWWEDkzxzxxzxxxAjxx",
"vvxxvzuuuy-%$$$$%$%%$$$$$%-4LLLTAvvvvxmAvvvvvYLLKFxvxvvvxvvvvvxx",
"vxvxzjuuue-%$$$@$$$$$$$$$$$4LLLTSvvvvxAAvvvvvYLLKDxvxvvvvxvvvxxx",
"vvxvvxyyue-@-$@-$$%$$%%$%%&4YLIBvzzvvvvvvzzvSTYLYvvvvzvvvvxvvvvv",
"wwwww8272222222278>&&*:11,6aLLYThhhhsssslVlTCLLLIi55556555wwwwww",
":-%-$-----rryyyyyy9****000igLLLGh0ww00i0gIYYKLLLJ& ... .XX%%%-%-",
"%%%%$$%@$;euuuuuuur****00iigLLLH0www0000gIYYLLLYG&       X#%$$%%",
"$$$@$$$$@-euuuuuuye***<5iiigYYKNi0ii0i00gYYYYYYYG&        $$$$$$",
"---------;ruuuuuure<**<03304HGNMi1600600gGIIJJKKG&.   ..X $$$$$-",
"rrrrereerrruuuuuuuq***,,,,<<<<3<,,,,:%:&0ddttttts<,&**&&*&****,*",
"yuuyuuuuuuuuuuuuuu9,*,*,********,,,*%%%%6yeyuuuue<**************",
"uyuurryuuuuuuuuuuue=****************&$$$7yuuuuuuy3,*************",
"uuuumruyyuuuuuuuuue<=***=**=*=**,*,,$$$$7ruuuuuuy<********,**,*<",
"uuuunerAuyuuuuuuuuueeeeeereeeeeee9e9;$$$7yuuuuuur,*******,9eeere",
"uuuurmyyuuuuuuuuuuruuuuryyuyuuyuutuu>$$$7yuuuuuuu<*******,rtyuuy",
"uuuuyuyyuuuuuuuuuuuruuuutuuuuuuuuuur>$$$7yuuuyuyr3**,***==yuyuuu",
"uuuuuunyuuuuuuuuuuuuuuuuuyuyuuuyuuuy>$$$7yuuuuuuy<*,***,*=eutuuu",
"uuuuyuyyuuuummuuuzuuuuzyuuyree9ee9e9;%-@7ruuuxuut811111122yyuyuy",
"uuuuuunyuuxxAAmmvvvvvSvuuuy3@-@--@--****3ruuuvvvxxxvvxuyrtuuuuuu",
"uuuuuuuuuuvvvvvvxvvvvvzuuuu7%%%%@$$$****9yuuuzvvvvvvvxuuyyuuuuuu",
"uuuyyuuuuuvxvvvvxzvvvvzuuuy8%%%%$$$%&***7yuuuxvvvvvvvxuuytuuuuuu",
"errerrrryyhxhzhhhhzshzhwee9:%%%%---:,<,1wuuuuvvvvvxvxzuutuuuuuuu",
"--------#;;#%;%>5%%oXXXXXX..   %hhhhzhzzzxvvxuuuuuuuuuxvkxxxvxxx",
"@$$$$$$$%%@@#%%-$$+            #zvvvxvvvzvvvAuuuuuuuuuzvvvvvvvvv",
"@-$$$$$$-%%;%%%#$$%            #zvvvxvvvvxvvxuuuuuuuuuvvvvvvvvvv",
"$$$$$%$%%%%@%#%%$$$      .     Xzzzzzzzzzzzhvyyyeyyyyuzzzzxzzzvz",
"$$$$$$$%%%%%%-#-$$$++++OOOO+%XX5w6ww5555555555;;$;-5;5wwwwwwwwww"
};
