/* XPM */
static char *d5a7e9ecbd92475eb4af3ff14b975c65TikiLTdWaYjM75mt[] = {
/* columns rows colors chars-per-pixel */
"64 64 80 1 ",
"  c None",
". c #0C0802",
"X c #0F0B04",
"o c #0F0B05",
"O c #0D0B06",
"+ c #110C05",
"@ c #120F07",
"# c #1B170E",
"$ c #1C180E",
"% c #1C190E",
"& c #1D180F",
"* c #1E1A0F",
"= c #1F1A0F",
"- c #1F1B0F",
"; c #1E1910",
": c #1E1A10",
"> c #1F1B10",
", c #201B0F",
"< c #201C0F",
"1 c #201B10",
"2 c #211B10",
"3 c #201C10",
"4 c #211C10",
"5 c #201D11",
"6 c #221D10",
"7 c #231D10",
"8 c #241E11",
"9 c #251F11",
"0 c #261F11",
"q c #282212",
"w c #292212",
"e c #292312",
"r c #2C2412",
"t c #2F2613",
"y c #403216",
"u c #413217",
"i c #443518",
"p c #473718",
"a c #4A3A19",
"s c #4B3B1A",
"d c #4C3B1A",
"f c #4B3C1A",
"g c #503E1B",
"h c #503F1B",
"j c #503E1C",
"k c #563D1C",
"l c #57421D",
"z c #56441D",
"x c #58421D",
"c c #5A431E",
"v c #5C411D",
"b c #63451E",
"n c #66481E",
"m c #6A4B20",
"M c #6E4C21",
"N c #6E4E21",
"B c #6F4E21",
"V c #704E21",
"C c #715021",
"Z c #745023",
"A c #765223",
"S c #775324",
"D c #795324",
"F c #795424",
"G c #7A5425",
"H c #866229",
"J c #8A652A",
"K c #8A6D2C",
"L c #93762F",
"P c #977A31",
"I c #A38334",
"U c #A78436",
"Y c #AC8737",
"T c #AB8A37",
"R c #AD8837",
"E c #AD8738",
"W c #AF8D39",
"Q c #B18E39",
"! c #BE9A3C",
"~ c #BE9A3D",
/* pixels */
"                                                                ",
"                                                                ",
"                                                                ",
"                                                                ",
"                                                                ",
"                                                                ",
"                                                                ",
"                                                                ",
"                                                                ",
"                                          ~~~                   ",
"                                          ~~~                   ",
"                                          ~~~                   ",
"                  1,3                  ~~~~~~                   ",
"                  1,3                  ~~~~~~                   ",
"                  1,3                  ETYYTR                   ",
"                  1,3                  FDDDDG                   ",
"                  1,3                  FFFDDD                   ",
"                  1,3                  VVVZDD                   ",
"                  1,0MDDDDD      3,,   jhhVDDDDD                ",
"                  1,0MDDDDD      3,,   jhhVDDDDD                ",
"                  1,3nMCHJJ      3,,   jhgVDDGFF                ",
"                  1,0ahzQ~~~~~   3,,   jggVDD                   ",
"                  1,3ahzQ~~~~~   3,,   jhhMDD                   ",
"                  ,=0yidQ~~~~~   333   hhhMDF                   ",
"                  1,,,,wT~~~~~      jhhhhh      ~~~             ",
"                  1,,,,wT~~~~~      jhghhh      ~~~             ",
"                  331,,wLIITTY      hhgkvc      ~~~             ",
"                     1,<ajkVDDDDDchhhhjVDDGDDT~~~~~             ",
"                     3,0ahhZDDDDFvgghggVDDDDGT~~~~~             ",
"                     1<3yiimMVDFFkggpipkbbbbbKPPURR             ",
"                     11,,,,ahh   jggr,1,,,,,,,,,bDG             ",
"                     1,,,,,ahh   jhhr,,,,,,,,,,,bDD             ",
"                     333333uii   jggr,,,,,,33333kbb             ",
"                           1,,ahhjggr,,,,,      3,,             ",
"                           1,,ajhhhhr,,,,,      3,,             ",
"                           333ahhpii0,,,33      333             ",
"                              hhgr,,2,,                         ",
"                              hhgr,,,,,                         ",
"                              aadt00000                         ",
"                              1,,ihhhhh                         ",
"                              1,,igghhh                         ",
"                              1<,udpfdd                         ",
"                              =-,,,,o                           ",
"                              ==,,,,o                           ",
"                              :1,,,,@                           ",
"                        =,,,,,   ,,,,,,+                        ",
"                        =,,,,,   3,,,,,+                        ",
"                       .=,,,,,   ,,,,,,@                        ",
"                  :>>>:3=,,,,,333=<=,,,,:1:1>                   ",
"                  ==,<<=<,,,,,,,<,,=,,,,<,<,<                   ",
"                  ==========,,,======<,,,,,,<                   ",
"                           =,,.     =,,,,,,,,13>>>:o            ",
"                           =-<      #--<,=<,=<,=3,,o            ",
"                           =,,O     =-<=========:13             ",
"                           =,,,::o  #-,+                        ",
"                           =,,,,>o  =,,o                        ",
"                           ======O  #==O                        ",
"                                                                ",
"                                                                ",
"                                                                ",
"                                                                ",
"                                                                ",
"                                                                ",
"                                                                "
};
