/* XPM */
static char *_28ca53bcf6449c89b24f9e3ec89f4cdCbGtscJp5v3HJ135[] = {
/* columns rows colors chars-per-pixel */
"64 64 8 1 ",
"  c None",
". c #161513",
"X c #1F2323",
"o c #242828",
"O c gray18",
"+ c #576062",
"@ c #6E787C",
"# c #9EAEB7",
/* pixels */
"                      XX++XX..XXXXXXXXXXXXXXXXXXXX@@XX          ",
"                      XX++XX..XXXXXXXXXXXXXXXXXXXX@@XX          ",
"                      XX++XX..OOOOOOOOOOOOOOOOOOXX@@XX          ",
"                      XX++XX..OOOOOOOOOOOOOOOOOOXX@@XX          ",
"                      XX++XX..OOOOOOOOOOOOOOOOOOXX@@XX          ",
"                      XX++XX..OOOOOOOOOOOOOOOOOOXX@@XX          ",
"                      XX++XX..OOOOOOOOOOOOOOOOOOXX@@XX          ",
"                      XX++XX..OOOOOOOOOOOOOOOOOOXX@@XX          ",
"                      XX++XX..++++++++++++++++++XX@@XX          ",
"                      XX++XX..++++++++++++++++++XX@@XX          ",
"                      XX++XX..XXXXXXXXXXXXXXXXXXXX@@XX          ",
"                      XX++XX..XXXXXXXXXXXXXXXXXXXX@@XX          ",
"                      ##++XX....................XX@@XX          ",
"                      ##++XX....................XX@@XX          ",
"                      ##++XX..XXXXXXXXXXXXXXXX..XX@@XX          ",
"                      ##++XX..XXXXXXXXXXXXXXXX..XX@@XX          ",
"                      ##++XX..oooooooooooooooo..XX@@XX          ",
"                      ##++XX..oooooooooooooooo..XX@@XX          ",
"                      OO++XX..oooooooooooooooo..XX@@XX          ",
"                      OO++XX..oooooooooooooooo..XX@@XX          ",
"                      ..++XX..oooooooooooooooo..XX@@XX          ",
"                      ..++XX..oooooooooooooooo..XX@@XX          ",
"                      XX++XX..oooooooooooooooo..XX@@XX          ",
"                      XX++XX..oooooooooooooooo..XX@@XX          ",
"                      XX++XX..oooooooooooooooo..XX@@XX          ",
"                      XX++XX..oooooooooooooooo..XX@@XX          ",
"                      XX++XX..oooooooooooooooo..XX@@XX          ",
"                      XX++XX..oooooooooooooooo..XX@@XX          ",
"                      XX++XX..ooooXXXXXXXXXXXX..XX@@XX          ",
"                      XX++XX..ooooXXXXXXXXXXXX..XX@@XX          ",
"                      XX++XX..ooooXXooooooooXX..XX++XX          ",
"                      XX++XX..ooooXXooooooooXX..XX++XX          ",
"                      XX++XX..ooooXXooooXXoooo..XX@@XX          ",
"                      XX++XX..ooooXXooooXXoooo..XX@@XX          ",
"                      XX++XX..oooooooooooooooo..XX@@XX          ",
"                      XX++XX..oooooooooooooooo..XX@@XX          ",
"                      XX++XX..XXXXXXXXXXXXXXXX..XX++XX          ",
"                      XX++XX..XXXXXXXXXXXXXXXX..XX++XX          ",
"                      XX++XX..OOOOOOOOOOOOOOOOOOXX++XX          ",
"                      XX++XX..OOOOOOOOOOOOOOOOOOXX++XX          ",
"                      XX++XX..OOOOOOOOOOOOOOOOOOXX++XX          ",
"                      XX++XX..OOOOOOOOOOOOOOOOOOXX++XX          ",
"                      XX++XX..OOOOOOOOOOOOOOOOOOXX++XX          ",
"                      XX++XX..OOOOOOOOOOOOOOOOOOXX++XX          ",
"                      XX++XX..++++++++++++++++++XX@@XX          ",
"                      XX++XX..++++++++++++++++++XX@@XX          ",
"                      XX++XXXXXXXXXXXXXXXXXXXXXXXXXX..          ",
"                      XX++XXXXXXXXXXXXXXXXXXXXXXXXXX..          ",
"                      XX++XX..........................          ",
"                      XX++XX..........................          ",
"                      XX++XX                                    ",
"                      XX++XX                                    ",
"                      XX++XX                                    ",
"                      XX++XX                                    ",
"                      XX++XX                                    ",
"                      XX++XX                                    ",
"                      XX++..                                    ",
"                      XX++..                                    ",
"                      ......                                    ",
"                      ......                                    ",
"                                                                ",
"                                                                ",
"                                                                ",
"                                                                "
};
