/* XPM */
static char *_5ccbf509b8b4093820ca3ab8dcd15b2v0OswTSS3jwDpHPV[] = {
/* columns rows colors chars-per-pixel */
"64 64 8 1 ",
"  c None",
". c #161513",
"X c #1F2323",
"o c gray18",
"O c #576062",
"+ c #6E787C",
"@ c #7D898F",
"# c #9EAEB7",
/* pixels */
"                                  XXooOO++++OO++++++++........oo",
"                                  XXooOO++++OO++++++++........oo",
"                                  XXooOO++++OO++++++++++++++..oo",
"                                  XXooOO++++OO++++++++++++++..oo",
"                                  XXooOO++++++OO++++++++++++..oo",
"                                  XXooOO++++++OO++++++++++++..oo",
"                                  XXooOO++++++OO++++++++++++++oo",
"                                  XXooOO++++++OO++++++++++++++oo",
"                                  XXooOO++++++++++++++++++++++oo",
"                                  XXooOO++++++++++++++++++++++oo",
"                                  XXooOO++++OO++++++++++++++++oo",
"                                  XXooOO++++OO++++++++++++++++oo",
"                                  XXooOO++++OO++++++++OO++++++oo",
"                                  XXooOO++++OO++++++++OO++++++oo",
"                                  XXooOO++++OO++++++++++++++++oo",
"                                  XXooOO++++OO++++++++++++++++oo",
"                                  XXooOO++++OO++++++++++++++++oo",
"                                  XXooOO++++OO++++++++++++++++oo",
"                                  XXooOO++++OO++++++++++++++++oo",
"                                  XXooOO++++OO++++++++++++++++oo",
"                                  XXooOO++++++++++++++++++++++oo",
"                                  XXooOO++++++++++++++++++++++oo",
"                                  XXooOO++++++++++++++++++++++oo",
"                                  XXooOO++++++++++++++++++++++oo",
"                                  XXooOO++OOOOOOOOOOOOOOOO++++oo",
"                                  XXooOO++OOOOOOOOOOOOOOOO++++oo",
"                                  XXooOOOO@@@@@@@@@@@@@@@@OO++oo",
"                                  XXooOOOO@@@@@@@@@@@@@@@@OO++oo",
"                                  XXooOOOO................OO++oo",
"                                  XXooOOOO................OO++oo",
"                                  XXooOOOO@@@@@@@@@@@@@@@@OO++oo",
"                                  XXooOOOO@@@@@@@@@@@@@@@@OO++oo",
"                                  XX####OO................OO++oo",
"                                  XX####OO................OO++oo",
"                                  XXXXXXOO@@@@@@@@@@@@@@@@OO++oo",
"                                  XXXXXXOO@@@@@@@@@@@@@@@@OO++oo",
"                                  XXooOOOO................OO++oo",
"                                  XXooOOOO................OO++oo",
"                                  XXooOO++OOOOOOOOOOOOOOOO++++oo",
"                                  XXooOO++OOOOOOOOOOOOOOOO++++oo",
"                                  XXoooooooooooooooooooooooooooo",
"                                  XXoooooooooooooooooooooooooooo",
"                                  ..XXXXXXXXXXXXXXXXXXXXXXXXXXXX",
"                                  ..XXXXXXXXXXXXXXXXXXXXXXXXXXXX",
"                                  ..............................",
"                                  ..............................",
"                                                                ",
"                                                                ",
"                                                                ",
"                                                                ",
"                                                                ",
"                                                                ",
"                                                                ",
"                                                                ",
"                                                                ",
"                                                                ",
"                                                                ",
"                                                                ",
"                                                                ",
"                                                                ",
"                                                                ",
"                                                                ",
"                                                                ",
"                                                                "
};
