/* XPM */
static char *_ae78cc02ec24997f4960705f7a4ee7ckN8aHYgGtg0HQVlk[] = {
/* columns rows colors chars-per-pixel */
"64 64 52 1 ",
"  c None",
". c #100C0C",
"X c #151413",
"o c #1A1515",
"O c #1B1817",
"+ c #1C1718",
"@ c #1E1918",
"# c #231616",
"$ c #201917",
"% c #241B1B",
"& c #2B1E1E",
"* c #311E1E",
"= c #2C211E",
"- c #31231F",
"; c #2E1F20",
": c #311F20",
"> c #2E2020",
", c #332121",
"< c #3C2424",
"1 c #3C2A23",
"2 c #422626",
"3 c #492727",
"4 c #432A26",
"5 c #492D27",
"6 c #4C2B29",
"7 c #522B2A",
"8 c #463326",
"9 c #4A3327",
"0 c #4C3329",
"q c #53342A",
"w c #5B342D",
"e c #543A2A",
"r c #5E3B2E",
"t c #613B2F",
"y c #653D30",
"u c #60432E",
"i c #644330",
"p c #6E4633",
"a c #6E4A33",
"s c #724A34",
"d c #784F36",
"f c #725335",
"g c #7A5337",
"h c #7B5238",
"j c #7F5A39",
"k c #82573A",
"l c #815C3A",
"z c #895F3C",
"x c #86623C",
"c c #8D653E",
"v c #946741",
"b c #9E7344",
/* pixels */
"                                                                ",
"                             >    7                             ",
"                             >,  -y                             ",
"                              <7 =                              ",
"                               ,<1      O                       ",
"                                %9i     1%                      ",
"                                 &j     i                       ",
"                                 +i     g                       ",
"                                 O1    4s                       ",
"                        3        %,   %r                        ",
"                        6        %,   =i                        ",
"                        2        %;   =<                        ",
"                     >  ,2  &    ;@3<&%                         ",
"                      &@,        @23%@                          ",
"                      %=2    %& %:2%                            ",
"                       &<     O<,<&@                            ",
"                       :<      %2<%      ,&                     ",
"                       &<X      %,%     2,                      ",
"                       %<>73    O;8lr42<,          q:           ",
"                        &><362  %<yw&%%>        , a6            ",
"               :,         %%>,&@;>:&O           67<             ",
"               6            O&>%&O>,           ,,               ",
"              <7              &%&%32    ;2  2,&                 ",
"              ,6               %%<t=     <q4&                   ",
"        O@    %2  %      >      @0c9     ,y,                    ",
"          @%&,&,&&<qy    >      O0br     ,,                     ",
"           %&&&&%<<2rypw32*     X,s5O-  2>%                     ",
"                   %><7w5,<r     &6=,ye4,%O                     ",
"                     %,&&;,wysr=@;;&,&%@@  @                    ",
"                      OOOO&,,,,%O,0%OO                          ",
"                      O    @OO@OO01O                            ",
"                             @&%Ou%                             ",
"                              O&&f>      =a0=@O                 ",
"                              O%&i3     %79@                    ",
"                               @&43w   =,=                      ",
"                               @@<3d ;<6,                       ",
"                               %@><c1%%=&                       ",
"                               &@%=c1O =>@                      ",
"                                O%,x%     O                     ",
"                                %%1a@                           ",
"                               O&%0qO                           ",
"                              2@%&3<&                           ",
"                              <@&%<7:O                          ",
"                             % @&<&2qO@                         ",
"                             & %%2*2k 22                        ",
"                             @&&@2<rz=&                         ",
"                               %,64cl&                          ",
"                             7 +<gsbq                           ",
"                              22<saqy                           ",
"                               <3q5tc                           ",
"                                ,<7xe                           ",
"                                ,109&3                          ",
"                                1-6<2                           ",
"                               w14de                            ",
"                               74ex                             ",
"                               2468                             ",
"                               =3<%@                            ",
"                              @9131&                            ",
"                            X%49230p2&;&#                       ",
"                           $#@&26:<jvk,o                        ",
"                           .&2*:*2%&7he                         ",
"                            &3&O*2#&%6r*                        ",
"                            <,O.-* o&#**,X                      ",
"                           #&+  Xo                              "
};
