/* XPM */
static char *cf786e14737b47b6b1c80add91e0d5d9IX3PiDJ9yAMKwlQl[] = {
/* columns rows colors chars-per-pixel */
"64 64 158 2 ",
"   c None",
".  c #1D0E16",
"X  c #1F0C19",
"o  c #1D1217",
"O  c #1E1218",
"+  c #210F16",
"@  c #200E19",
"#  c #201217",
"$  c #231219",
"%  c #2E131D",
"&  c #2C1A1F",
"*  c #30161C",
"=  c #2D1D23",
"-  c #371726",
";  c #361926",
":  c #391827",
">  c #3A1828",
",  c #381728",
"<  c #32252B",
"1  c #3B292C",
"2  c #35263A",
"3  c #4E3D1D",
"4  c #431423",
"5  c #4D1424",
"6  c #411A27",
"7  c #4B1C23",
"8  c #531F24",
"9  c #55182D",
"0  c #5D1A2E",
"q  c #501725",
"w  c #4C1C33",
"e  c #501B32",
"r  c #6A1B2D",
"t  c #721D2C",
"y  c #422F2F",
"u  c #4E2122",
"i  c #59202C",
"p  c #402D30",
"a  c #5D213E",
"s  c #562C31",
"d  c #453136",
"f  c #4F393C",
"g  c #523C3F",
"h  c #74262D",
"j  c #62223E",
"k  c #76273D",
"l  c #6D333A",
"z  c #4C4A1A",
"x  c #64542D",
"c  c #4F3B40",
"v  c #523B40",
"b  c #672446",
"n  c #692447",
"m  c #6F2549",
"M  c #7D2246",
"N  c #7D2943",
"B  c #783E41",
"V  c #7D2955",
"C  c #544448",
"Z  c #574B4E",
"A  c #524E50",
"S  c #5D5859",
"D  c #5D5758",
"F  c #494245",
"G  c #6D4144",
"H  c #724143",
"J  c #68554C",
"K  c #7E6B5D",
"L  c #626363",
"P  c #871633",
"I  c #8E1735",
"U  c #8D1837",
"Y  c #971A3D",
"T  c #A6173B",
"R  c #A9173C",
"E  c #A7183B",
"W  c #AA193D",
"Q  c #B21A3E",
"!  c #952F32",
"~  c #9C3134",
"^  c #AE223D",
"/  c #A6333D",
"(  c #A13B3D",
")  c #B1343E",
"_  c #BB353A",
"`  c #BB393A",
"'  c #C0333D",
"]  c #A64034",
"[  c #B4443D",
"{  c #D34E3D",
"}  c #D3503D",
"|  c #E1623D",
" . c #E4703A",
".. c #A31D40",
"X. c #AD1A44",
"o. c #A91F49",
"O. c #B71C46",
"+. c #BD1D49",
"@. c #832146",
"#. c #9C2A4B",
"$. c #812A56",
"%. c #942551",
"&. c #942E51",
"*. c #992F51",
"=. c #973051",
"-. c #9A3051",
";. c #A5284E",
":. c #A6324C",
">. c #BD3946",
",. c #C11D4A",
"<. c #CB1A47",
"1. c #D21646",
"2. c #D41946",
"3. c #D91947",
"4. c #DA1549",
"5. c #D71948",
"6. c #DA1948",
"7. c #C62548",
"8. c #CD2543",
"9. c #D62346",
"0. c #DA2446",
"q. c #D42A46",
"w. c #CF3E48",
"e. c #CF3547",
"r. c #D13747",
"t. c #D33F49",
"y. c #D93946",
"u. c #E43A44",
"i. c #EA3C45",
"p. c #B54E4B",
"a. c #966B54",
"s. c #977A78",
"d. c #8A7368",
"f. c #AF7667",
"g. c #AE7C70",
"h. c #C84344",
"j. c #D95350",
"k. c #EC4545",
"l. c #E24642",
"z. c #F34745",
"x. c #F44846",
"c. c #C96E43",
"v. c #A49725",
"b. c #B0A52A",
"n. c #C5992F",
"m. c #D3A32F",
"M. c #A3C51C",
"N. c #CFFF1D",
"B. c #CDC627",
"V. c #D1C728",
"C. c #D6D127",
"Z. c #9C8A74",
"A. c #B18B84",
"S. c #AD9684",
"D. c #B59591",
"F. c #A58982",
"G. c #D4B4A8",
"H. c #ECC6BE",
/* pixels */
"                                                                                                                                ",
"                                                                                                                                ",
"                                                                                                                                ",
"                                                                                                                                ",
"                                        $ % $ %                                 $ $ $ $                                         ",
"                                        $ + + +                                 + + $ $                                         ",
"                                        + + + +                                 + + + +                                         ",
"                                        g g v g                                 g g g g                                         ",
"                $ $ $ $         % + + f s.D.D.s.g + $ $ $ $ $ $ $ $ $ $ $ $ + f s.D.D.s.g + + $         $ $ $ $                 ",
"                $ $ $ $         $ $ + g D.H.H.D.g . o $ $ $ $ $ $ $ $ $ $ . . g D.H.H.D.g + $ $         $ $ $ $                 ",
"                $ $ O O         $ + + g D.H.H.D.f . . O $ $ O O $ $ $ $ $ . . f D.H.H.D.g + $ $         $ $ $ $                 ",
"                8 8 8 8         % $ + f Z.G.G.A.H q 8 8 8 i 8 8 8 8 8 8 8 8 7 B A.G.G.F.f @ + $         8 8 u 8                 ",
"        $ $ $ 8 ~ ` ` ~ 8 $ $ $ $ $ $ y d.Z.S.g.p._ _ ` _ ` ` ` ` ` ` ` ` ) _ p.g.S.S.d.d + $ % $ $ O 8 ~ ` ` ~ 8 $ $ $         ",
"        % $ O 8 ` x.x.` 8 O O $ $ $ $ y d.Z.Z.f.j.k.i.k.k.k.k.k.k.k.k.k.k.k.z.j.f.Z.Z.K y + $ $ $ $ O 8 ` x.x.` 8 $ $ $         ",
"        $ $ $ 8 ` x.x.` 7 O O $ $ $ + y d.Z.Z.f.j.i.k.k.k.k.k.k.k.k.k.k.k.i.i.j.f.Z.Z.K y + $ $ O O O 8 _ x.z.` 8 $ $ $         ",
"        $ $ $ q ) i.i.' h 8 8 7 * + + < J K K a.c. . .| l.u.y.u.u.y.u.l.|  . .c.a.K K J 1 $ + * 7 8 8 h _ i.i._ q $ $ %         ",
"        $ $ $ q W 0.0.8.' ` ` ! 7 o $ & 1 1 p x b.C.C.m.{ 3.9.9.9.9.2.{ m.C.C.b.x 1 1 1 & $ o 7 ! ` ` >.8.0.0.W 5 $ O $         ",
"        $ $ $ 5 E 1.2.9.u.x.z.` 8 o O $ . @ X z M.N.N.B.{ 1.1.1.1.1.1.{ V.N.N.M.z @ @ + $ O o i ` z.z.u.9.1.5...5 $ $ $         ",
"        $ $ $ 5 E 1.<.9.u.x.x.` 8 o o O $ @ . z M.N.N.B.} 1.1.1.2.1.1.{ B.N.N.M.z @ @ $ $ o O 8 ` z.z.u.0.2.2.T 5 $ $ &         ",
"        $ $ $ 5 E 2.2.9.r.h.t.>.h 8 8 7 - @ @ 3 v.V.B.n.[ W X.X.X.X.W [ n.V.V.v.3 @ $ % 7 8 q h >.t.r.r.8.2.2.T 5 $ $ $         ",
"        & $ $ 5 E 2.2.,.:.&.=.:.) ` ` ! 7 O $ 7 ( } } [ k a a j j a a k [ { } ( u O X 7 ! ` ` ` #.=.=.;.7.2.2.T 5 $ $ $         ",
"        $ $ $ 5 E 2.2.+.%.V V =.t.x.x.` 8 o # 5 R 4.4.O.j 2 2 2 2 2 2 j X.4.4.R 5 $ o i ' x.z.h.=.V m %.+.2.2.T 5 $ $ &         ",
"        $ $ $ 5 E 2.2.O.%.V V =.t.x.x.` 8 o O 5 R 4.5.X.a 2 2 2 2 2 2 a O.4.4.R 5 # o i ` x.x.t.=.V V %.+.2.2.T 5 $ $ $         ",
"        $ $ $ 5 E 2.2.O.%.V V =.>.t.t./ 8 O $ 4 P W W Y k a j j j a a k Y R W P 4 o o 7 / t.t.>.&.V V %.+.2.2.T 5 $ $ $         ",
"        $ $ $ 5 E 2.2.+.%.V V $.&.*.*.@.6 $ $ % 4 5 5 r Y X.X.X.X.X.X.Y r 5 5 4 % $ $ 6 N -.*.&.$.V V %.+.2.2.E 5 $ $ $         ",
"        & $ $ 5 E 2.2.+.%.V $.@.$.$.$.n : $ $ O O O . 4 R 3.2.2.2.2.5.W 4 o O O $ $ O > n $.$.V $.$.V %.+.2.2.E 5 $ $ $         ",
"        $ $ $ 5 E 2.2.+.%.V V V $.$.$.n : O o $ O O o 4 R 3.2.1.2.3.3.T 4 o O O O O O - n $.$.$.$.$.V %.+.2.2.W 5 O $ &         ",
"        $ $ $ 5 E 2.2.+.%.V $.V m n m j i 8 8 u 8 8 8 r ..,.+.+.+.+.+.E r i 8 u 8 8 8 i j m n m V N V %.+.2.2.E 5 $ $ $         ",
"        $ $ $ 5 E 2.2.+.%.$.$.m w ; - i ~ ` ` _ ` ` ` ) #.%.%.%.%.%.%.#.) ` ` _ _ ` ` ~ i - - w m $.$.%.+.2.2.E 5 $ & $         ",
"        & $ $ 5 W 2.2.+.%.$.$.n : o o 8 ` z.z.z.k.k.x.t.&.V V V V V V *.h.x.z.k.k.z.x.` u o o : n $.$.%.+.2.2.W 5 $ $ $         ",
"        $ $ $ 5 E 2.2.+.%.$.$.m ; o o 8 ` z.k.k.k.x.k.h.*.V V V V V V *.h.z.k.k.z.z.z.` 8 o o - n $.$.%.+.2.2.E 5 $ $ $         ",
"        $ $ $ 5 E 2.2.O.@.n n j 9 5 4 r ) t.w.t.y.u.u.r.:.*.&.*.&.&.*.:.y.u.u.y.y.t.h.) r 4 5 9 j n n @.O.2.2.E 5 $ $ $         ",
"        $ $ $ 5 W 5.5.W 0 ; ; 9 U R R ..#.*.&.:.8.9.9.q.r.w.w.w.w.w.w.e.q.9.9.7.:.*.*.#...R R I 9 : ; 0 W 3.2.W 5 $ $ $         ",
"        & $ $ 5 W 6.5.R 5 O O 5 R 6.5.,.%.V V %.+.1.1.9.u.k.k.k.k.k.k.u.9.1.1.+.%.V V %.,.5.4.X.5 o O 5 R 6.5.W 5 $ $ $         ",
"        $ $ $ 5 W 5.6.W 5 O O 5 R 6.5.,.%.V V %.+.1.1.9.u.k.l.k.l.k.k.u.9.1.1.+.%.V V %.,.5.6.R 5 o o 5 W 5.6.R 5 O $ $         ",
"        $ $ $ 5 I W W P 4 O O 5 ..,.,.o.M n b @.o.+.O.7.y.u.u.u.u.u.u.y.7.+.+.o.M b n M o.,.,.Y 5 $ $ 4 I R W I 5 $ $ $         ",
"                5 5 5 4 * @ $ 4 M %.%.@.e : : e M %.%.;.8.9.9.9.9.9.9.7.;.%.%.M e : : e @.%.%.N > $ $ * 4 q 5 5                 ",
"                $ $ $ $ & $ $ : b V V b : # o : n $.V %.+.1.1.1.1.1.5.+.%.V $.n : o # : b V $.b : $ $ $ $ $ $ $                 ",
"                $ $ $ $ $ $ $ > n $.$.b : # o - m $.V %.,.1.2.2.1.2.5.+.%.V $.n > o $ > b $.$.n : $ $ $ $ $ $ $                 ",
"                $ $ $ $ $ $ $ 6 N -.-.N 6 # $ ; a n n M ;.+.+.+.+.+.,.;.M n n 0 - $ $ 6 N -.-.@.6 $ $ $ $ & $ $                 ",
"                        $ $ O 7 :.l.t./ 8 $ $ % : : : e M %.%.%.%.%.%.M w - , - % $ O 7 / l.h./ 8 $ $ $                         ",
"                        $ $ $ 8 ` z.x.` 8 $ $ $ # # o : n $.$.V V V V n ; O o $ $ $ $ 8 ' x.x.` 8 $ $ $                         ",
"                        $ $ $ 8 ` x.x.' 8 $ $ $ $ o o - b V V V V $.V b ; O o $ $ $ $ 8 ` x.z.` 8 $ $ $                         ",
"                        % $ $ 8 ~ ` ` ! 7 @ @ = 4 5 5 0 @.%.%.%.%.%.%.@.r 5 5 4 % $ $ 7 ! ' ` / 8 $ $ &                         ",
"                                8 u i 7 * $ $ 4 P W R X.O.+.+.O.+.+.+.O.W W R P 4 $ $ * 7 i u 8                                 ",
"                                $ # # $ $ $ $ 5 W 5.2.2.2.2.2.1.2.2.2.2.2.2.2.W 5 $ $ $ $ O $ $                                 ",
"                                $ $ $ $ $ $ $ 5 W 2.2.2.2.2.2.2.2.2.2.2.2.2.5.W 5 $ $ $ $ $ $ $                                 ",
"                                $ $ $ $ $ $ $ 5 E 2.2.<.,.O.+.+.O.+.O.,.<.2.2.W 5 $ $ $ $ $ $ $                                 ",
"                                        $ $ O 5 E 2.2.,.;.%.%.%.%.%.%.;.,.2.1.E 5 $ $ $                                         ",
"                                        $ $ O 5 E 2.2.+.%.V V V V V V %.+.2.2.E 5 O $ $                                         ",
"                                        $ O O 5 T 2.2.+.%.V $.$.$.V V %.+.2.2.E 5 O O O                                         ",
"                                        8 8 7 t Q 2.2.O.@.n n n n n n @.O.2.1.O.t u 8 8                                         ",
"                                $ $ $ 8 ~ ` ` ' 8.2.2.X.r ; > > > : - 0 W 2.2.8._ ` ` ~ 8 . $ $                                 ",
"                                $ # + 8 ` x.x.u.0.2.2.R 5 O $ $ $ $ $ 5 R 2.2.9.i.z.z.` 8 $ $ $                                 ",
"                                # + # 8 ` x.k.u.0.2.5.R 5 O O $ $ O O 5 W 2.3.0.i.z.x.` 8 . $ @                                 ",
"                                < < < s ( h.h.e.^ E R U 5 O $ $ $ $ $ 5 I R W W >.h.h.( s < < <                                 ",
"                        $ $ $ 1 F A A Z H B H l 0 7 5 5                 5 5 5 i l B B G Z A A F < $ $ %                         ",
"                        $ $ $ < A L L S C f c d = O $ $                 $ $ o = d v v C S L L A < $ $ $                         ",
"                        % $ $ < A L L S C v v d = O $ $                 $ $ # = d v v C S L L A < $ $ $                         ",
"                        $ $ $ < A L L S C v v d ; $ $ $                 $ $ $ ; d v v C S L L Z 1 $ $ $                         ",
"                                                                                                                                ",
"                                                                                                                                ",
"                                                                                                                                ",
"                                                                                                                                "
};
