/* XPM */
static char *_41f433642054676da82269c3f15a7ac5aOonZ8LVYGZcYx2[] = {
/* columns rows colors chars-per-pixel */
"64 64 13 1 ",
"  c None",
". c #161513",
"X c #281E1A",
"o c #21211E",
"O c #323232",
"+ c #4F301C",
"@ c #662C21",
"# c #4F453C",
"$ c #454442",
"% c #67645E",
"& c #933F2D",
"* c #875B33",
"= c #B84D37",
/* pixels */
"                                                                ",
"                                                                ",
"                                                                ",
"                                                                ",
"                                                                ",
"                                    oooooooo                    ",
"                                    oooooooo                    ",
"                                  ooOOOO$$OOoooo                ",
"                                  ooOOOO$$OOoooo                ",
"            oooooooooo            ..OOOO$$$$OOOOoo              ",
"            oooooooooo            ..OOOO$$$$OOOOoo              ",
"          ooOOOO$$$$....oo        ooOOOO$$%%%%$$oo              ",
"          ooOOOO$$$$....oo        ooOOOO$$%%%%$$oo              ",
"        ooOO$$$$%%$$$$OOOOooooooooooOOOO$$$$$$oooo##            ",
"        ooOO$$$$%%$$$$OOOOooooooooooOOOO$$$$$$oooo##            ",
"      ooOO$$$$%%%%$$$$$$OOooOO++++++++++oooooo....oo##          ",
"      ooOO$$$$%%%%$$$$$$OOooOO++++++++++oooooo....oo##          ",
"      ..OO$$$$%%$$OOOOOO..++@@&&&&****++++oooo......##          ",
"      ..OO$$$$%%$$OOOOOO..++@@&&&&****++++oooo......##          ",
"    ##..OO$$OO$$OOOOOO++&&++++++++++**++XXXXoo....##oooooooo    ",
"    ##..OO$$OO$$OOOOOO++&&++++++++++**++XXXXoo....##oooooooo    ",
"  ####..OO$$OOOOOOoo&&&&++++****&&&&@@++XXXX..##ooooOO$$OOOOoo  ",
"  ####..OO$$OOOOOOoo&&&&++++****&&&&@@++XXXX..##ooooOO$$OOOOoo  ",
"    ##..ooOOoooo++&&&&XXXX++******@@@@&&++XXXXooOOOO$$$$OOOO..  ",
"    ##..ooOOoooo++&&&&XXXX++******@@@@&&++XXXXooOOOO$$$$OOOO..  ",
"  ######..oo++++++****====++++====@@@@@@&&@@++oo$$%%%%$$OOOO..  ",
"  ######..oo++++++****====++++====@@@@@@&&@@++oo$$%%%%$$OOOO..  ",
"    ######++++XX++XXXXXX========&&@@@@&&====&&&&++$$$$$$OOOO..  ",
"    ######++++XX++XXXXXX========&&@@@@&&====&&&&++$$$$$$OOOO..  ",
"          ++++XXXX++XX&&&&&&==&&&&@@@@@@@@====@@&&&&oooooooo..  ",
"          ++++XXXX++XX&&&&&&==&&&&@@@@@@@@====@@&&&&oooooooo..  ",
"            ++++++++XX@@==&&==&&====XX&&@@@@==&&@@&&&&++oo....  ",
"            ++++++++XX@@==&&==&&====XX&&@@@@==&&@@&&&&++oo....  ",
"        ooooOO$$++++++@@@@@@&&==&&==XXXX@@@@@@@@@@****XX++++    ",
"        ooooOO$$++++++@@@@@@&&==&&==XXXX@@@@@@@@@@****XX++++    ",
"      ooOOOO$$$$OOOO..@@@@&&@@==&&==@@XXXXXX&&++&&**XXXXXXXX++  ",
"      ooOOOO$$$$OOOO..@@@@&&@@==&&==@@XXXXXX&&++&&**XXXXXXXX++  ",
"      oo$$%%%%$$OO++++++****@@@@@@@@@@XXXXXXXXXX&&XXXXXXXX++++  ",
"      oo$$%%%%$$OO++++++****@@@@@@@@@@XXXXXXXXXX&&XXXXXXXX++++  ",
"    ##oooo$$$$$$++++XX++XX**&&++&&XXXXXXOO$$$$XX&&XXXXXXXX++    ",
"    ##oooo$$$$$$++++XX++XX**&&++&&XXXXXXOO$$$$XX&&XXXXXXXX++    ",
"  ##oo....oooooo++++XXXX++XX&&XXXXXX..OO$$$$$$%%%%++++++oo      ",
"  ##oo....oooooo++++XXXX++XX&&XXXXXX..OO$$$$$$%%%%++++++oo      ",
"  ##......ooooooOO++++++++XX&&XXOOOOOOooOOOOOO$$%%$$$$OO..      ",
"  ##......ooooooOO++++++++XX&&XXOOOOOOooOOOOOO$$%%$$$$OO..      ",
"  ####....ooooOOOO$$$$++++++....OOOO....ooOOOOOO$$OO$$OO..##    ",
"  ####....ooooOOOO$$$$++++++....OOOO....ooOOOOOO$$OO$$OO..##    ",
"      ####..OOOOOO%%$$OOOO..............ooooooOOOOOO$$OO..####  ",
"      ####..OOOOOO%%$$OOOO..............ooooooOOOOOO$$OO..####  ",
"        ####OOOOOOOOOOoooooo....######......ooooooooOOoo..##    ",
"        ####OOOOOOOOOOoooooo....######......ooooooooOOoo..##    ",
"        ####..OOOOOOoooooo....####      ####....oooooo..######  ",
"        ####..OOOOOOoooooo....####      ####....oooooo..######  ",
"      ######......oooooo....######    ############    ######    ",
"      ######......oooooo....######    ############    ######    ",
"        ######..........######                                  ",
"        ######..........######                                  ",
"            ################                                    ",
"            ################                                    ",
"                                                                ",
"                                                                ",
"                                                                ",
"                                                                ",
"                                                                "
};
